<?xml version="1.0" encoding="UTF-8"?>
<!DOCTYPE svg PUBLIC "-//W3C//DTD SVG 1.1//EN" "http://www.w3.org/Graphics/SVG/1.1/DTD/svg11.dtd">
<!-- Creator: CorelDRAW (Versão OEM) -->
<svg xmlns="http://www.w3.org/2000/svg" xml:space="preserve" width="10mm" height="10.3498mm" version="1.1" style="shape-rendering:geometricPrecision; text-rendering:geometricPrecision; image-rendering:optimizeQuality; fill-rule:evenodd; clip-rule:evenodd"
viewBox="0 0 985.94 1020.43"
 xmlns:xlink="http://www.w3.org/1999/xlink"
 xmlns:xodm="http://www.corel.com/coreldraw/odm/2003">
 <defs>
  <style type="text/css">
   <![CDATA[
    .fil0 {fill:#B6DB52}
   ]]>
  </style>
 </defs>
 <g id="Camada_x0020_1">
  <metadata id="CorelCorpID_0Corel-Layer"/>
  <g id="_2071289685648">
   <path class="fil0" d="M410.93 56.06c-78.15,0.05 -157,1 -235.08,0.04 -123.2,-1.52 -120.28,-29.67 -175.08,-56.1 -23.53,330.89 497.77,161.11 685.66,222.12 117.93,38.3 140.66,220.75 24.11,282.71 -71.33,37.91 -337.61,20.18 -437.54,21.33 13.04,60.94 23.95,6.12 52.97,153.07 115.3,8.5 117.28,-6.52 184.88,64.51 219.93,231.06 140.09,279.03 475.09,270.98 -12.97,-17.78 -89.69,-56.96 -178.44,-156.73 -49.99,-56.2 -98.4,-119.35 -146.13,-175.74 16.2,-11.21 3.23,-3.83 26.78,-9.94l67.63 -19.78c244.72,-103.96 215.64,-425.09 63.45,-532.42 -122.47,-86.37 -238.77,-64.15 -408.3,-64.05z"/>
   <path class="fil0" d="M114.21 524.55c-2.19,25.16 -7.01,468.96 1.48,483.01 13.04,21.55 115.44,10.04 144.07,7.71 10.21,-56.93 5.21,-259.1 2.33,-325.98 -3.73,-86.08 -61.64,-170.66 -147.87,-164.74z"/>
  </g>
 </g>
</svg>
